<svg xmlns="http://www.w3.org/2000/svg" xmlns:xlink="http://www.w3.org/1999/xlink" width="150.66" height="33.09" viewBox="0 0 150.66 33.09">
  <defs>
    <style>
      .cls-1 {
        fill-rule: evenodd;
        filter: url(#filter);
      }
    </style>
    <filter id="filter" x="5986.75" y="4859.66" width="150.66" height="33.09" filterUnits="userSpaceOnUse">
      <feFlood result="flood" flood-color="#b3b3b3"/>
      <feComposite result="composite" operator="in" in2="SourceGraphic"/>
      <feBlend result="blend" in2="SourceGraphic"/>
    </filter>
  </defs>
  <path id="_CLOSE_のコピー" data-name="×CLOSE のコピー" class="cls-1" d="M5986.75,4888.82l3.92,3.92,12.62-12.73,12.59,12.73,3.98-3.92-12.72-12.55,12.72-12.65-3.98-3.96-12.59,12.69-12.62-12.69-3.92,3.96,12.73,12.65Zm61.19-5.76q-1.62,3.495-4.89,3.49a4.5,4.5,0,0,1-2.35-.58,4.417,4.417,0,0,1-1.62-1.28,4.258,4.258,0,0,1-1-2.16,29.743,29.743,0,0,1-.28-5.12,30.409,30.409,0,0,1,.28-5.15,4.24,4.24,0,0,1,1-2.12,4.844,4.844,0,0,1,1.62-1.32,5.428,5.428,0,0,1,2.35-.55,5.1,5.1,0,0,1,3.17,1.08,5.63,5.63,0,0,1,1.72,2.63h4.11a9.642,9.642,0,0,0-2.95-5.39,8.626,8.626,0,0,0-6.05-2.2,8.767,8.767,0,0,0-5.04,1.44,8.909,8.909,0,0,0-2.99,3.16,7.077,7.077,0,0,0-.86,2.45,65.916,65.916,0,0,0,0,11.92,7.131,7.131,0,0,0,.35,1.37c0.15,0.35.32,0.72,0.51,1.1a8.526,8.526,0,0,0,2.99,3.13,9.014,9.014,0,0,0,5.04,1.48,9.138,9.138,0,0,0,5.79-1.9,9.608,9.608,0,0,0,3.21-5.48h-4.11Zm7.76,7.17h16.36v-3.68h-12.48V4864.6h-3.88v25.63Zm20.3-6.87a7.131,7.131,0,0,0,.35,1.37c0.16,0.35.33,0.72,0.51,1.1a8.526,8.526,0,0,0,2.99,3.13,9.024,9.024,0,0,0,5.05,1.48,9.16,9.16,0,0,0,5.09-1.48,8.3,8.3,0,0,0,2.92-3.13,6.019,6.019,0,0,0,.9-2.47,77.336,77.336,0,0,0,0-11.92,6.033,6.033,0,0,0-.9-2.45,8.673,8.673,0,0,0-2.92-3.16,8.91,8.91,0,0,0-5.09-1.44,8.778,8.778,0,0,0-5.05,1.44,8.909,8.909,0,0,0-2.99,3.16,7.288,7.288,0,0,0-.86,2.45,68.441,68.441,0,0,0,0,11.92h0Zm3.92-11.1a4.325,4.325,0,0,1,1-2.12,4.844,4.844,0,0,1,1.62-1.32,5.474,5.474,0,0,1,2.36-.55,5.733,5.733,0,0,1,2.4.55,5.41,5.41,0,0,1,2.59,3.44,33.55,33.55,0,0,1,.26,5.15,32.808,32.808,0,0,1-.26,5.12,4.556,4.556,0,0,1-1.04,2.16,4.172,4.172,0,0,1-1.55,1.28,4.74,4.74,0,0,1-2.4.58,4.539,4.539,0,0,1-2.36-.58,4.417,4.417,0,0,1-1.62-1.28,4.341,4.341,0,0,1-1-2.16,29.743,29.743,0,0,1-.28-5.12,30.409,30.409,0,0,1,.28-5.15h0Zm19.87,11.75-2.55,2.91a14.5,14.5,0,0,0,9.79,3.52q8.8-.1,9-7.45a7.332,7.332,0,0,0-1.7-4.79,8.029,8.029,0,0,0-5.33-2.58c-1.22-.15-2.18-0.29-2.88-0.4a4.946,4.946,0,0,1-2.76-1.27,2.794,2.794,0,0,1-.86-2,3.329,3.329,0,0,1,1.28-2.78,4.829,4.829,0,0,1,2.99-.9,11.8,11.8,0,0,1,6.34,1.97l2.16-3.2a14.355,14.355,0,0,0-8.31-2.65,8.679,8.679,0,0,0-6.13,2.07,7.022,7.022,0,0,0-2.24,5.42,6.763,6.763,0,0,0,1.78,4.74,8.39,8.39,0,0,0,5.03,2.45c1.23,0.17,2.36.33,3.39,0.47q3.375,0.585,3.34,3.45-0.075,3.495-5.06,3.56a11.256,11.256,0,0,1-7.28-2.54h0Zm21.24,6.22h16.36v-3.68h-12.48v-7.52h10.65v-3.44h-10.65v-7.32h12.48v-3.67h-16.36v25.63Z" transform="translate(-5986.75 -4859.66)"/>
</svg>
